<?xml version="1.0" encoding="UTF-8"?>
<svg xmlns="http://www.w3.org/2000/svg" xmlns:xlink="http://www.w3.org/1999/xlink" width="1920" height="1080" viewBox="0 0 1920 1080">
<defs>
<g>
<g id="glyph-0-0">
<path d="M 1.738281 -0.738281 L 1.003906 0 L 0.265625 -0.738281 L 1.003906 -1.472656 Z "/>
</g>
<g id="glyph-1-0">
<rect x="0" y="0" width="0" height="0" mask="url(#mask-0)"/>
</g>
<g id="glyph-1-1">
<path d="M 0.0390625 -0.0703125 C 0.109375 -0.0742188 0.15625 -0.0859375 0.1875 -0.101562 C 0.242188 -0.128906 0.269531 -0.179688 0.269531 -0.253906 L 0.269531 -1.625 C 0.269531 -1.695312 0.242188 -1.746094 0.191406 -1.773438 C 0.164062 -1.789062 0.109375 -1.800781 0.0390625 -1.804688 L 0.0390625 -1.875 L 0.886719 -1.875 C 1.230469 -1.875 1.492188 -1.785156 1.671875 -1.601562 C 1.835938 -1.4375 1.917969 -1.214844 1.917969 -0.933594 C 1.917969 -0.683594 1.832031 -0.46875 1.667969 -0.292969 C 1.484375 -0.0976562 1.234375 0 0.914062 0 L 0.0390625 0 Z M 0.71875 -0.257812 C 0.722656 -0.199219 0.730469 -0.160156 0.75 -0.132812 C 0.769531 -0.109375 0.808594 -0.09375 0.871094 -0.09375 C 1.035156 -0.09375 1.167969 -0.152344 1.273438 -0.269531 C 1.378906 -0.386719 1.433594 -0.609375 1.433594 -0.9375 C 1.433594 -1.132812 1.40625 -1.304688 1.347656 -1.445312 C 1.253906 -1.671875 1.101562 -1.785156 0.882812 -1.785156 C 0.808594 -1.785156 0.761719 -1.769531 0.742188 -1.738281 C 0.726562 -1.71875 0.71875 -1.679688 0.71875 -1.625 Z "/>
</g>
<g id="glyph-1-2">
<path d="M 0.0429688 0 L 0.0429688 -0.0703125 C 0.125 -0.0742188 0.179688 -0.0859375 0.214844 -0.101562 C 0.265625 -0.132812 0.292969 -0.1875 0.292969 -0.265625 L 0.292969 -1.609375 C 0.292969 -1.691406 0.265625 -1.746094 0.210938 -1.773438 C 0.179688 -1.789062 0.125 -1.800781 0.0429688 -1.804688 L 0.0429688 -1.875 L 1.644531 -1.875 L 1.644531 -1.316406 L 1.578125 -1.316406 C 1.542969 -1.496094 1.480469 -1.617188 1.398438 -1.683594 C 1.3125 -1.75 1.160156 -1.785156 0.9375 -1.785156 C 0.851562 -1.785156 0.796875 -1.773438 0.773438 -1.757812 C 0.75 -1.738281 0.738281 -1.703125 0.738281 -1.652344 L 0.738281 -1.007812 C 0.898438 -1.007812 1.003906 -1.035156 1.058594 -1.09375 C 1.117188 -1.152344 1.160156 -1.261719 1.1875 -1.417969 L 1.261719 -1.417969 L 1.261719 -0.480469 L 1.1875 -0.480469 C 1.167969 -0.640625 1.128906 -0.75 1.066406 -0.816406 C 1.007812 -0.878906 0.898438 -0.914062 0.738281 -0.914062 L 0.738281 -0.238281 C 0.738281 -0.179688 0.753906 -0.140625 0.785156 -0.121094 C 0.816406 -0.0976562 0.878906 -0.0898438 0.972656 -0.0898438 C 1.148438 -0.0898438 1.292969 -0.121094 1.40625 -0.191406 C 1.515625 -0.261719 1.617188 -0.390625 1.703125 -0.578125 L 1.78125 -0.578125 L 1.667969 0 Z "/>
</g>
<g id="glyph-1-3">
<path d="M 0.0429688 -0.0703125 C 0.125 -0.0742188 0.179688 -0.0859375 0.214844 -0.101562 C 0.265625 -0.132812 0.292969 -0.1875 0.292969 -0.265625 L 0.292969 -1.609375 C 0.292969 -1.691406 0.265625 -1.746094 0.214844 -1.773438 C 0.183594 -1.789062 0.128906 -1.800781 0.0429688 -1.804688 L 0.0429688 -1.875 L 1.621094 -1.875 L 1.621094 -1.316406 L 1.550781 -1.316406 C 1.515625 -1.488281 1.460938 -1.609375 1.378906 -1.679688 C 1.296875 -1.75 1.144531 -1.785156 0.925781 -1.785156 C 0.84375 -1.785156 0.792969 -1.773438 0.773438 -1.753906 C 0.75 -1.738281 0.738281 -1.703125 0.738281 -1.652344 L 0.738281 -1.007812 C 0.890625 -1.007812 0.992188 -1.039062 1.042969 -1.105469 C 1.097656 -1.171875 1.136719 -1.273438 1.164062 -1.417969 L 1.234375 -1.417969 L 1.234375 -0.480469 L 1.164062 -0.480469 C 1.144531 -0.632812 1.105469 -0.742188 1.050781 -0.808594 C 0.992188 -0.878906 0.886719 -0.914062 0.738281 -0.914062 L 0.738281 -0.265625 C 0.738281 -0.179688 0.765625 -0.125 0.8125 -0.101562 C 0.863281 -0.078125 0.941406 -0.0703125 1.042969 -0.0703125 L 1.042969 0 L 0.0429688 0 Z "/>
</g>
<g id="glyph-1-4">
<path d="M 0.0429688 -0.0703125 C 0.121094 -0.0703125 0.179688 -0.0820312 0.214844 -0.0976562 C 0.269531 -0.128906 0.296875 -0.183594 0.296875 -0.265625 L 0.296875 -1.609375 C 0.296875 -1.691406 0.273438 -1.746094 0.21875 -1.773438 C 0.1875 -1.792969 0.128906 -1.804688 0.0429688 -1.804688 L 0.0429688 -1.875 L 1.015625 -1.875 L 1.015625 -1.804688 C 0.929688 -1.800781 0.871094 -1.792969 0.835938 -1.777344 C 0.78125 -1.75 0.753906 -1.691406 0.753906 -1.609375 L 0.753906 -0.265625 C 0.753906 -0.1875 0.777344 -0.136719 0.820312 -0.109375 C 0.863281 -0.0820312 0.929688 -0.0703125 1.015625 -0.0703125 L 1.015625 0 L 0.0429688 0 Z "/>
</g>
<g id="glyph-1-5">
<path d="M 0.0429688 -0.0703125 C 0.148438 -0.0742188 0.214844 -0.09375 0.242188 -0.128906 C 0.273438 -0.164062 0.289062 -0.21875 0.289062 -0.292969 L 0.289062 -1.605469 C 0.203125 -1.703125 0.152344 -1.757812 0.132812 -1.773438 C 0.113281 -1.789062 0.0859375 -1.800781 0.0507812 -1.804688 L 0.0507812 -1.875 L 0.640625 -1.875 L 1.59375 -0.707031 L 1.605469 -0.707031 L 1.605469 -1.53125 C 1.605469 -1.625 1.589844 -1.695312 1.554688 -1.734375 C 1.519531 -1.773438 1.453125 -1.796875 1.347656 -1.804688 L 1.347656 -1.875 L 1.949219 -1.875 L 1.949219 -1.804688 C 1.859375 -1.792969 1.800781 -1.773438 1.773438 -1.746094 C 1.742188 -1.722656 1.730469 -1.667969 1.730469 -1.582031 L 1.730469 0.0507812 L 1.652344 0.0507812 L 0.429688 -1.433594 L 0.410156 -1.433594 L 0.410156 -0.34375 C 0.410156 -0.257812 0.421875 -0.199219 0.445312 -0.164062 C 0.484375 -0.105469 0.558594 -0.0742188 0.675781 -0.0703125 L 0.675781 0 L 0.0429688 0 Z "/>
</g>
<g id="glyph-1-6">
<path d="M 0.0742188 -1.875 L 1.746094 -1.875 L 1.746094 -1.316406 L 1.667969 -1.316406 C 1.640625 -1.515625 1.566406 -1.652344 1.441406 -1.722656 C 1.371094 -1.761719 1.269531 -1.78125 1.132812 -1.785156 L 1.132812 -0.324219 C 1.132812 -0.222656 1.148438 -0.152344 1.183594 -0.121094 C 1.21875 -0.0859375 1.292969 -0.0703125 1.40625 -0.0703125 L 1.40625 0 L 0.417969 0 L 0.417969 -0.0703125 C 0.527344 -0.0703125 0.597656 -0.0859375 0.632812 -0.121094 C 0.667969 -0.15625 0.6875 -0.222656 0.6875 -0.324219 L 0.6875 -1.785156 C 0.550781 -1.78125 0.449219 -1.761719 0.375 -1.722656 C 0.242188 -1.648438 0.167969 -1.515625 0.152344 -1.316406 L 0.0703125 -1.316406 Z "/>
</g>
<g id="glyph-1-7">
<path d="M 1.078125 -0.0390625 C 1.285156 -0.0390625 1.425781 -0.160156 1.503906 -0.40625 C 1.546875 -0.542969 1.566406 -0.714844 1.566406 -0.933594 C 1.566406 -1.226562 1.523438 -1.449219 1.433594 -1.601562 C 1.347656 -1.75 1.226562 -1.824219 1.078125 -1.824219 C 0.867188 -1.824219 0.722656 -1.699219 0.644531 -1.449219 C 0.605469 -1.316406 0.585938 -1.144531 0.585938 -0.933594 C 0.585938 -0.714844 0.605469 -0.542969 0.648438 -0.40625 C 0.722656 -0.160156 0.867188 -0.0390625 1.078125 -0.0390625 Z M 1.078125 -1.917969 C 1.359375 -1.917969 1.589844 -1.828125 1.773438 -1.648438 C 1.964844 -1.460938 2.0625 -1.222656 2.0625 -0.933594 C 2.0625 -0.640625 1.964844 -0.402344 1.773438 -0.214844 C 1.589844 -0.0351562 1.355469 0.0546875 1.078125 0.0546875 C 0.78125 0.0546875 0.539062 -0.0429688 0.351562 -0.242188 C 0.175781 -0.429688 0.0898438 -0.652344 0.0898438 -0.917969 C 0.0898438 -1.207031 0.179688 -1.445312 0.363281 -1.632812 C 0.546875 -1.824219 0.785156 -1.917969 1.078125 -1.917969 Z "/>
</g>
</g>
<image id="source-6" x="0" y="0" width="0" height="0"/>
<mask id="mask-0">
<use xlink:href="#source-6"/>
</mask>
</defs>
<g fill="rgb(54.509804%, 36.078431%, 96.470588%)" fill-opacity="1">
<use xlink:href="#glyph-0-0" x="30" y="22.685547"/>
</g>
<g fill="rgb(54.509804%, 36.078431%, 96.470588%)" fill-opacity="1">
<use xlink:href="#glyph-1-0" x="32" y="22.685547"/>
<use xlink:href="#glyph-1-1" x="33" y="22.685547"/>
<use xlink:href="#glyph-1-2" x="35" y="22.685547"/>
<use xlink:href="#glyph-1-3" x="37" y="22.685547"/>
<use xlink:href="#glyph-1-4" x="39" y="22.685547"/>
<use xlink:href="#glyph-1-5" x="40" y="22.685547"/>
<use xlink:href="#glyph-1-4" x="42" y="22.685547"/>
<use xlink:href="#glyph-1-6" x="43" y="22.685547"/>
<use xlink:href="#glyph-1-4" x="45" y="22.685547"/>
<use xlink:href="#glyph-1-7" x="46" y="22.685547"/>
<use xlink:href="#glyph-1-5" x="48" y="22.685547"/>
</g>
</svg>
