<?xml version="1.0" encoding="UTF-8"?>
<svg xmlns="http://www.w3.org/2000/svg" xmlns:xlink="http://www.w3.org/1999/xlink" width="1920" height="1080" viewBox="0 0 1920 1080">
<defs>
<g>
<g id="glyph-0-0">
<path d="M 0.898438 -1.664062 C 1.042969 -1.664062 1.171875 -1.625 1.277344 -1.546875 C 1.382812 -1.472656 1.4375 -1.390625 1.4375 -1.300781 C 1.4375 -1.261719 1.421875 -1.222656 1.394531 -1.191406 C 1.367188 -1.15625 1.328125 -1.140625 1.269531 -1.140625 C 1.230469 -1.140625 1.195312 -1.15625 1.164062 -1.183594 C 1.132812 -1.210938 1.109375 -1.253906 1.09375 -1.304688 L 1.074219 -1.390625 C 1.058594 -1.453125 1.03125 -1.496094 0.996094 -1.523438 C 0.957031 -1.546875 0.90625 -1.558594 0.839844 -1.558594 C 0.707031 -1.558594 0.59375 -1.5 0.5 -1.382812 C 0.410156 -1.265625 0.363281 -1.113281 0.363281 -0.917969 C 0.363281 -0.742188 0.414062 -0.582031 0.515625 -0.441406 C 0.617188 -0.300781 0.753906 -0.230469 0.925781 -0.230469 C 1.050781 -0.230469 1.160156 -0.269531 1.253906 -0.347656 C 1.308594 -0.394531 1.367188 -0.46875 1.4375 -0.566406 L 1.484375 -0.539062 C 1.417969 -0.398438 1.347656 -0.285156 1.273438 -0.203125 C 1.132812 -0.046875 0.96875 0.0351562 0.78125 0.0351562 C 0.597656 0.0351562 0.433594 -0.0390625 0.292969 -0.183594 C 0.152344 -0.328125 0.0820312 -0.523438 0.0820312 -0.773438 C 0.0820312 -1.015625 0.160156 -1.222656 0.3125 -1.398438 C 0.46875 -1.574219 0.664062 -1.664062 0.898438 -1.664062 Z "/>
</g>
</g>
</defs>
<g fill="rgb(100%, 100%, 100%)" fill-opacity="1">
<use xlink:href="#glyph-0-0" x="30" y="22.708008"/>
</g>
</svg>
