<?xml version="1.0" encoding="UTF-8"?>
<svg xmlns="http://www.w3.org/2000/svg" xmlns:xlink="http://www.w3.org/1999/xlink" width="1920" height="1080" viewBox="0 0 1920 1080">
<defs>
<g>
<g id="glyph-0-0">
<path d="M 0.0742188 -2.574219 L 2.273438 -2.574219 L 2.292969 -1.914062 L 2.203125 -1.914062 C 2.15625 -2.121094 2.097656 -2.253906 2.027344 -2.316406 C 1.957031 -2.378906 1.808594 -2.410156 1.582031 -2.410156 L 1.367188 -2.410156 L 1.367188 -0.421875 C 1.367188 -0.269531 1.390625 -0.175781 1.4375 -0.140625 C 1.484375 -0.105469 1.585938 -0.0820312 1.746094 -0.0703125 L 1.746094 0 L 0.613281 0 L 0.613281 -0.0703125 C 0.777344 -0.0820312 0.878906 -0.109375 0.917969 -0.152344 C 0.960938 -0.195312 0.980469 -0.296875 0.980469 -0.46875 L 0.980469 -2.410156 L 0.761719 -2.410156 C 0.546875 -2.410156 0.402344 -2.382812 0.324219 -2.320312 C 0.246094 -2.257812 0.1875 -2.121094 0.148438 -1.914062 L 0.0546875 -1.914062 Z "/>
</g>
<g id="glyph-0-1">
<path d="M 0.890625 -1.78125 C 1.070312 -1.78125 1.226562 -1.71875 1.359375 -1.597656 C 1.492188 -1.472656 1.5625 -1.296875 1.5625 -1.070312 L 0.355469 -1.070312 C 0.367188 -0.777344 0.433594 -0.5625 0.554688 -0.429688 C 0.675781 -0.296875 0.816406 -0.226562 0.980469 -0.226562 C 1.113281 -0.226562 1.226562 -0.261719 1.316406 -0.332031 C 1.410156 -0.402344 1.492188 -0.5 1.570312 -0.628906 L 1.636719 -0.605469 C 1.585938 -0.445312 1.488281 -0.296875 1.34375 -0.160156 C 1.203125 -0.0234375 1.027344 0.046875 0.824219 0.046875 C 0.585938 0.046875 0.402344 -0.0429688 0.269531 -0.222656 C 0.140625 -0.402344 0.0742188 -0.609375 0.0742188 -0.84375 C 0.0742188 -1.097656 0.152344 -1.320312 0.300781 -1.503906 C 0.453125 -1.6875 0.648438 -1.78125 0.890625 -1.78125 Z M 0.78125 -1.644531 C 0.636719 -1.644531 0.527344 -1.578125 0.449219 -1.449219 C 0.410156 -1.382812 0.378906 -1.296875 0.363281 -1.191406 L 1.164062 -1.191406 C 1.148438 -1.320312 1.125 -1.414062 1.09375 -1.476562 C 1.03125 -1.585938 0.925781 -1.644531 0.78125 -1.644531 Z "/>
</g>
<g id="glyph-0-2">
<path d="M 0.898438 -1.746094 L 0.898438 -1.691406 C 0.851562 -1.691406 0.8125 -1.683594 0.777344 -1.671875 C 0.742188 -1.660156 0.726562 -1.636719 0.726562 -1.597656 C 0.726562 -1.574219 0.761719 -1.503906 0.828125 -1.394531 C 0.863281 -1.335938 0.910156 -1.265625 0.964844 -1.179688 C 1.039062 -1.28125 1.09375 -1.363281 1.128906 -1.421875 C 1.191406 -1.515625 1.222656 -1.574219 1.222656 -1.601562 C 1.222656 -1.636719 1.210938 -1.65625 1.183594 -1.667969 C 1.15625 -1.679688 1.121094 -1.6875 1.070312 -1.691406 L 1.070312 -1.746094 L 1.683594 -1.746094 L 1.683594 -1.691406 C 1.617188 -1.6875 1.558594 -1.667969 1.503906 -1.640625 C 1.445312 -1.609375 1.402344 -1.570312 1.367188 -1.519531 L 1.042969 -1.050781 L 1.542969 -0.292969 C 1.609375 -0.195312 1.664062 -0.128906 1.707031 -0.101562 C 1.753906 -0.0703125 1.804688 -0.0546875 1.863281 -0.0546875 L 1.863281 0 L 1.078125 0 L 1.078125 -0.0546875 L 1.132812 -0.0585938 C 1.164062 -0.0585938 1.1875 -0.0703125 1.207031 -0.0820312 C 1.226562 -0.0976562 1.238281 -0.117188 1.238281 -0.140625 C 1.238281 -0.164062 1.210938 -0.21875 1.164062 -0.300781 C 1.140625 -0.339844 1.105469 -0.394531 1.0625 -0.464844 C 1.039062 -0.5 1.007812 -0.546875 0.964844 -0.609375 C 0.921875 -0.667969 0.886719 -0.71875 0.859375 -0.761719 L 0.550781 -0.285156 C 0.515625 -0.230469 0.492188 -0.191406 0.484375 -0.171875 C 0.476562 -0.152344 0.472656 -0.136719 0.472656 -0.125 C 0.472656 -0.101562 0.480469 -0.0859375 0.5 -0.078125 C 0.519531 -0.0703125 0.5625 -0.0625 0.628906 -0.0546875 L 0.628906 0 L 0.0664062 0 L 0.0664062 -0.0546875 C 0.136719 -0.0664062 0.183594 -0.0859375 0.21875 -0.105469 C 0.25 -0.128906 0.296875 -0.179688 0.347656 -0.257812 L 0.792969 -0.898438 L 0.425781 -1.453125 C 0.351562 -1.5625 0.304688 -1.628906 0.273438 -1.648438 C 0.246094 -1.667969 0.1875 -1.683594 0.09375 -1.691406 L 0.09375 -1.746094 Z "/>
</g>
<g id="glyph-0-3">
<path d="M 1.113281 -1.050781 C 0.96875 -1.003906 0.847656 -0.949219 0.753906 -0.894531 C 0.570312 -0.78125 0.480469 -0.652344 0.480469 -0.507812 C 0.480469 -0.394531 0.519531 -0.308594 0.59375 -0.253906 C 0.644531 -0.21875 0.699219 -0.203125 0.757812 -0.203125 C 0.84375 -0.203125 0.921875 -0.226562 1 -0.273438 C 1.078125 -0.320312 1.113281 -0.378906 1.113281 -0.449219 Z M 0.140625 -0.378906 C 0.140625 -0.5625 0.234375 -0.714844 0.417969 -0.835938 C 0.535156 -0.914062 0.765625 -1.015625 1.113281 -1.148438 L 1.113281 -1.308594 C 1.113281 -1.4375 1.101562 -1.527344 1.078125 -1.578125 C 1.035156 -1.664062 0.945312 -1.707031 0.808594 -1.707031 C 0.746094 -1.707031 0.683594 -1.6875 0.625 -1.65625 C 0.566406 -1.621094 0.539062 -1.574219 0.539062 -1.515625 C 0.539062 -1.5 0.539062 -1.476562 0.546875 -1.4375 C 0.554688 -1.402344 0.554688 -1.378906 0.554688 -1.371094 C 0.554688 -1.300781 0.53125 -1.25 0.484375 -1.222656 C 0.460938 -1.207031 0.429688 -1.195312 0.390625 -1.195312 C 0.335938 -1.195312 0.289062 -1.214844 0.261719 -1.253906 C 0.230469 -1.289062 0.214844 -1.332031 0.214844 -1.375 C 0.214844 -1.464844 0.269531 -1.558594 0.378906 -1.65625 C 0.488281 -1.753906 0.648438 -1.800781 0.859375 -1.800781 C 1.105469 -1.800781 1.273438 -1.722656 1.359375 -1.5625 C 1.40625 -1.472656 1.429688 -1.347656 1.429688 -1.179688 L 1.429688 -0.417969 C 1.429688 -0.34375 1.433594 -0.292969 1.445312 -0.265625 C 1.460938 -0.214844 1.496094 -0.191406 1.546875 -0.191406 C 1.578125 -0.191406 1.601562 -0.195312 1.621094 -0.207031 C 1.640625 -0.214844 1.671875 -0.234375 1.71875 -0.269531 L 1.71875 -0.171875 C 1.679688 -0.121094 1.632812 -0.0820312 1.585938 -0.0507812 C 1.515625 0 1.445312 0.0234375 1.371094 0.0234375 C 1.285156 0.0234375 1.222656 -0.00390625 1.183594 -0.0625 C 1.144531 -0.117188 1.125 -0.183594 1.121094 -0.261719 C 1.023438 -0.175781 0.941406 -0.113281 0.875 -0.0742188 C 0.757812 -0.00390625 0.648438 0.0273438 0.546875 0.0273438 C 0.4375 0.0273438 0.34375 -0.0117188 0.261719 -0.0859375 C 0.183594 -0.164062 0.140625 -0.261719 0.140625 -0.378906 Z "/>
</g>
<g id="glyph-0-4">
<path d="M 0.203125 -0.597656 L 0.265625 -0.597656 C 0.292969 -0.453125 0.332031 -0.34375 0.382812 -0.265625 C 0.472656 -0.125 0.601562 -0.0546875 0.769531 -0.0546875 C 0.867188 -0.0546875 0.941406 -0.078125 0.996094 -0.132812 C 1.050781 -0.183594 1.078125 -0.253906 1.078125 -0.335938 C 1.078125 -0.390625 1.0625 -0.441406 1.03125 -0.488281 C 1 -0.539062 0.945312 -0.585938 0.863281 -0.632812 L 0.652344 -0.757812 C 0.496094 -0.839844 0.382812 -0.921875 0.308594 -1.007812 C 0.234375 -1.09375 0.199219 -1.191406 0.199219 -1.308594 C 0.199219 -1.449219 0.25 -1.566406 0.347656 -1.65625 C 0.449219 -1.75 0.578125 -1.792969 0.730469 -1.792969 C 0.796875 -1.792969 0.871094 -1.78125 0.953125 -1.757812 C 1.03125 -1.730469 1.078125 -1.71875 1.089844 -1.71875 C 1.113281 -1.71875 1.128906 -1.722656 1.136719 -1.726562 C 1.148438 -1.734375 1.15625 -1.746094 1.164062 -1.757812 L 1.210938 -1.757812 L 1.222656 -1.230469 L 1.164062 -1.230469 C 1.140625 -1.351562 1.105469 -1.445312 1.0625 -1.515625 C 0.984375 -1.640625 0.871094 -1.707031 0.722656 -1.707031 C 0.632812 -1.707031 0.5625 -1.679688 0.511719 -1.625 C 0.460938 -1.570312 0.4375 -1.503906 0.4375 -1.433594 C 0.4375 -1.316406 0.523438 -1.210938 0.699219 -1.121094 L 0.949219 -0.984375 C 1.21875 -0.839844 1.355469 -0.667969 1.355469 -0.472656 C 1.355469 -0.324219 1.296875 -0.203125 1.1875 -0.105469 C 1.074219 -0.0117188 0.925781 0.0351562 0.746094 0.0351562 C 0.671875 0.0351562 0.585938 0.0234375 0.488281 0 C 0.390625 -0.0273438 0.335938 -0.0390625 0.316406 -0.0390625 C 0.300781 -0.0390625 0.289062 -0.0351562 0.277344 -0.0234375 C 0.265625 -0.0117188 0.257812 0 0.25 0.015625 L 0.203125 0.015625 Z "/>
</g>
</g>
</defs>
<g fill="rgb(100%, 100%, 100%)" fill-opacity="1">
<use xlink:href="#glyph-0-0" x="30" y="22.916992"/>
<use xlink:href="#glyph-0-1" x="32" y="22.916992"/>
<use xlink:href="#glyph-0-2" x="34" y="22.916992"/>
<use xlink:href="#glyph-0-3" x="36" y="22.916992"/>
<use xlink:href="#glyph-0-4" x="38" y="22.916992"/>
</g>
</svg>
